<svg width="800" height="600" viewBox="0 0 800 600" fill="none" xmlns="http://www.w3.org/2000/svg">
  <rect width="800" height="600" fill="#F3F4F6"/>
  <rect x="199" y="199" width="402" height="202" rx="8" fill="#E5E7EB"/>
  <path d="M400 270C400 259.507 408.507 251 419 251H581C591.493 251 600 259.507 600 270V330C600 340.493 591.493 349 581 349H419C408.507 349 400 340.493 400 330V270Z" fill="#9CA3AF"/>
  <circle cx="450" cy="300" r="20" fill="#E5E7EB"/>
  <path d="M520 320L480 280L460 300L440 280L420 300L400 280V349H600V280L580 300L560 280L540 300L520 280V320Z" fill="#6B7280"/>
  <text x="400" y="420" font-family="Arial, sans-serif" font-size="24" fill="#6B7280" text-anchor="middle">Placeholder Image</text>
</svg>